<svg width="41" height="55" viewBox="0 0 41 55" fill="none" xmlns="http://www.w3.org/2000/svg">
<g clip-path="url(#clip0_244_3080)">
<path d="M40.2029 12.9056L27.7023 0.438881C27.5104 0.249247 27.2539 0.142578 26.9839 0.142578H6.19083C5.63042 0.142578 5.17529 0.596345 5.17529 1.15509V15.6841H7.20637V2.1676H25.1498V14.5463C25.1498 15.105 25.6049 15.5588 26.1654 15.5588H38.4656V45.7293H36.2358L34.5495 47.756H39.4828C40.0433 47.756 40.4984 47.3022 40.4984 46.7418V13.6235C40.4984 13.3543 40.3914 13.0987 40.2012 12.9073L40.2029 12.9056ZM27.1843 13.5338V2.7873L37.9561 13.5338H27.1843ZM18.1311 45.731H7.20637V32.2788H5.17529V46.7435C5.17529 47.3039 5.63042 47.7577 6.19083 47.7577H19.8174L18.1311 45.731Z" fill="#E60012"/>
<path d="M23.1187 18.1001H0.980598C0.715171 18.1001 0.5 18.3146 0.5 18.5793V29.3224C0.5 29.587 0.715171 29.8015 0.980598 29.8015H23.1187C23.3841 29.8015 23.5993 29.587 23.5993 29.3224V18.5793C23.5993 18.3146 23.3841 18.1001 23.1187 18.1001Z" fill="#E60012"/>
<path d="M8.02646 21.3747C7.83626 21.0428 7.56964 20.7838 7.22829 20.5992C6.92941 20.4367 6.58297 20.3453 6.19068 20.3266C6.13633 20.3249 6.08029 20.3232 6.02425 20.3232H3.1084V27.5784H4.47887V24.7627H6.02595C6.08369 24.7627 6.13803 24.761 6.19238 24.7593C6.57957 24.7407 6.92601 24.6493 7.2266 24.4901C7.56964 24.3073 7.83796 24.0482 8.02816 23.7163C8.21836 23.3828 8.31346 22.9934 8.31346 22.5481C8.31346 22.1028 8.21836 21.7082 8.02816 21.3764L8.02646 21.3747ZM6.66109 23.1982C6.53542 23.332 6.37918 23.4099 6.19068 23.4353C6.14822 23.442 6.10407 23.4437 6.05991 23.4437H4.47717V21.6388H6.05991C6.10407 21.6388 6.14822 21.6405 6.19068 21.6473C6.38088 21.671 6.53881 21.7506 6.66278 21.8843C6.81393 22.0503 6.89035 22.2704 6.89035 22.5464C6.89035 22.8223 6.81223 23.034 6.66109 23.1982Z" fill="white"/>
<path d="M14.0145 21.0039C13.5153 20.5501 12.8088 20.3232 11.8952 20.3232H9.48877V27.5784H11.8918C12.5286 27.5784 13.0584 27.4684 13.4847 27.25C13.9109 27.0315 14.2302 26.7268 14.4442 26.3357C14.6565 25.9445 14.7652 25.4925 14.7652 24.976V22.9206C14.7652 22.0977 14.5172 21.456 14.0162 21.0022L14.0145 21.0039ZM13.342 25.0167C13.342 25.4095 13.2181 25.7143 12.9718 25.9327C12.7256 26.1511 12.3758 26.2612 11.9274 26.2612H10.8609V21.6405H11.9274C12.3758 21.6405 12.7256 21.7472 12.9718 21.9639C13.2181 22.1806 13.342 22.4871 13.342 22.8816V25.0167Z" fill="white"/>
<path d="M20.9907 21.6405V20.3232H17.5841H16.7129H16.2119V27.5767H17.5841V24.6984H20.4405V23.3811H17.5841V21.6405H20.9907Z" fill="white"/>
<path d="M33.9826 33.6757H10.8596C10.452 33.6757 10.1226 33.3472 10.1226 32.9409C10.1226 32.5345 10.452 32.2061 10.8596 32.2061H33.9826C34.3902 32.2061 34.7197 32.5345 34.7197 32.9409C34.7197 33.3472 34.3902 33.6757 33.9826 33.6757Z" fill="#E60012"/>
<path d="M20.6649 37.4819H10.4467C10.2667 37.4819 10.1206 37.1534 10.1206 36.747C10.1206 36.3407 10.2667 36.0122 10.4467 36.0122H20.6649C20.8449 36.0122 20.9909 36.3407 20.9909 36.747C20.9909 37.1534 20.8449 37.4819 20.6649 37.4819Z" fill="#E60012"/>
<path d="M20.6649 41.2866H10.4467C10.2667 41.2866 10.1206 40.9581 10.1206 40.5517C10.1206 40.1454 10.2667 39.8169 10.4467 39.8169H20.6649C20.8449 39.8169 20.9909 40.1454 20.9909 40.5517C20.9909 40.9581 20.8449 41.2866 20.6649 41.2866Z" fill="#E60012"/>
<path d="M34.5444 45.2977L34.1844 45.7312L32.4964 47.7579L27.1843 54.1428L21.8723 47.7579L20.1842 45.7312L19.8242 45.2977H23.2563V36.0107H31.1123V45.2977H34.5444Z" fill="#E60012"/>
</g>
<defs>
<clipPath id="clip0_244_3080">
<rect width="40" height="54" fill="white" transform="translate(0.5 0.142578)"/>
</clipPath>
</defs>
</svg>
