<svg fill="none" height="26" viewBox="0 0 195 26" width="195" xmlns="http://www.w3.org/2000/svg"><g fill="#cb0014"><path d="m19.6442 23.0965h-5.3923l1.3527-8.9811h-7.57184l-1.3528 8.9811h-5.42996l2.61164-17.19992c.18789-1.26442.71398-2.28712 1.54069-3.0309.80791-.72519 1.86009-1.09708 3.15652-1.09708h10.29625c1.2964 0 2.2359.37189 2.8183 1.09708.5825.74378.7704 1.74788.5825 3.0309l-2.5929 17.19992zm-3.4947-12.5699.5637-3.70029h-7.5719l-.56367 3.70029z"/><path d="m42.3035 23.0965h-6.6136l-2.1044-8.4605h-1.9352l-4.6221 8.4605h-6.6136l6.7451-10.8964-3.2129-10.4501h6.2191l2.1232 8.5721h1.954l4.716-8.5721h6.2379l-6.3506 10.4501z"/><path d="m66.1465 18.5408c-.2442 1.5434-.7139 2.6963-1.4279 3.4586-.6952.7252-1.7286 1.0971-3.1002 1.0971h-14.5801l3.2317-21.3465h14.6177c1.334 0 2.2546.31611 2.7432.94832.5073.61362.6576 1.61772.4509 3.01231l-.4697 3.08669c-.094.6694-.3194 1.20868-.6576 1.59918-.3195.409-.9583.9483-1.9165 1.6735.8267.3904 1.334.8553 1.5219 1.376.1691.3904.1879 1.0412.0564 1.9338zm-5.2796-.595.5824-3.8304h-7.647l-.5825 3.8304zm1.1273-7.4192.5637-3.7003h-7.6471l-.5636 3.7003z"/><path d="m84.3153 23.0965h-5.3172l1.2588-8.3117h-7.1773l-1.2589 8.3117h-5.3736l3.2317-21.3465h13.5843c1.4843 0 2.5177.3347 3.119.98551.5824.63221.7515 1.67351.5448 3.10528l-.4133 2.78918c-.1503.92973-.4322 1.63633-.8831 2.11973-.5073.5393-1.4655 1.0413-2.8747 1.5434 1.2777.5578 2.1044 1.0971 2.4614 1.6363.2818.4463.3382 1.1529.2066 2.0826l-1.0709 7.0845zm-3.4759-12.4397.5824-3.8119h-7.1397l-.5825 3.8119z"/><path d="m103.611 23.0965h-5.392l1.3528-8.9811h-7.5719l-1.3528 8.9811h-5.4111l2.5928-17.19992c.1879-1.26442.714-2.28712 1.5407-3.0309.8079-.72519 1.8601-1.09708 3.1565-1.09708h10.296c1.297 0 2.236.37189 2.819 1.09708.582.74378.77 1.74788.582 3.0309zm-3.494-12.5699.563-3.70029h-7.5715l-.5637 3.70029z"/><path d="m110.958 23.0965h-5.937l3.231-21.3465h5.937z"/><path d="m131.588 23.0965h-5.317l-4.697-11.4356c-.207-.4835-.508-1.469-.902-2.97515l-.752.29752c.038 1.26443-.056 2.64043-.282 4.10943l-1.503 10.0038h-5.11l3.212-21.3465h7.009l3.419 8.5349c.188.4277.489 1.3946.921 2.9193l.733-.2417c-.019-1.2644.075-2.6776.3-4.20237l1.071-7.01013h5.13z"/><path d="m153.289 23.0965h-15.482l3.232-21.3465h5.843l-2.461 16.1958h9.657z"/><path d="m169.898 6.8449h-5.862l-2.461 16.2516h-5.731l2.462-16.2516h-6.126l.771-5.0949h17.718z"/><path d="m188.593 17.388c-.582 3.8119-2.405 5.7271-5.505 5.7271h-14.242l3.213-21.3651h14.373c1.391 0 2.424.48346 3.063 1.45037.676.94832.864 2.30572.601 4.0722l-1.522 10.09683zm-5.712.5578 1.673-11.10091h-7.854l-1.672 11.10091z"/><path d="m189.645 18.6338h4.322l-.752 5.0391h-4.321z"/></g></svg>